<?xml version="1.0" encoding="UTF-8"?>
<svg version="1.1" xmlns="http://www.w3.org/2000/svg" width="16" height="17">
<path d="M0 0 C2.64 0 5.28 0 8 0 C8 4.29 8 8.58 8 13 C5.36 13 2.72 13 0 13 C0 14.32 0 15.64 0 17 C-2.64 17 -5.28 17 -8 17 C-8 12.71 -8 8.42 -8 4 C-5.36 4 -2.72 4 0 4 C0 2.68 0 1.36 0 0 Z M0 5 C0 5.99 0 6.98 0 8 C1.32 8 2.64 8 4 8 C4 7.01 4 6.02 4 5 C2.68 5 1.36 5 0 5 Z M-4 9 C-4 9.99 -4 10.98 -4 12 C-2.68 12 -1.36 12 0 12 C0 11.01 0 10.02 0 9 C-1.32 9 -2.64 9 -4 9 Z " fill="#FFFFFF" transform="translate(8,0)"/>
</svg>
