<?xml version="1.0" encoding="UTF-8"?>
<svg version="1.1" xmlns="http://www.w3.org/2000/svg" width="500" height="150">
<path d="M0 0 C3.63 0.33 7.26 0.66 11 1 C10.76667969 2.155 10.53335938 3.31 10.29296875 4.5 C9.68744909 9.44851975 11.07139218 12.65486931 13.3125 17 C13.67641846 17.73275146 14.04033691 18.46550293 14.4152832 19.22045898 C21.29565999 32.77615377 29.70958945 44.73424199 39.55029297 56.29638672 C40.79704718 57.76150138 42.02714412 59.24076161 43.25390625 60.72265625 C46.72948837 64.81611963 50.17473132 67.88845213 54.5625 71 C58.81860759 74.28047677 58.81860759 74.28047677 59.5859375 77.32421875 C59.32874606 81.4189772 58.591362 83.42420016 55.625 86.3125 C51.56853705 90.4655454 50.44661884 95.2758352 50 101 C50.8339648 104.05617588 52.3015982 106.35542972 54 109 C54.70905938 110.98536627 55.39421747 112.98072489 56 115 C57.65 115.33 59.3 115.66 61 116 C60.3125 117.875 60.3125 117.875 59 120 C57.35619011 120.7211874 55.68967412 121.39401025 54 122 C53.18501438 120.3970947 52.37310073 118.79262722 51.5625 117.1875 C51.11003906 116.29417969 50.65757813 115.40085937 50.19140625 114.48046875 C49 112 49 112 48 109 C47.01 108.34 46.02 107.68 45 107 C44.54625 107.680625 44.0925 108.36125 43.625 109.0625 C40.46504071 111.39485091 39.75076893 111.09358233 36 110.5625 C34.7315625 110.31693359 34.7315625 110.31693359 33.4375 110.06640625 C30.3364813 109.98192337 29.24734131 110.95554367 27 113 C25.9673198 110.21176345 25.95490707 109.1322726 26.9375 106.25 C27.288125 105.5075 27.63875 104.765 28 104 C31.3 104.33 34.6 104.66 38 105 C39.32 100.71 40.64 96.42 42 92 C36.44895018 94.16855792 36.44895018 94.16855792 32 98 C31.34 98 30.68 98 30 98 C30.12109375 95.76171875 30.12109375 95.76171875 31 93 C33.72265625 90.83203125 33.72265625 90.83203125 37.0625 88.8125 C39.07021015 87.58725798 41.05797801 86.3269019 43 85 C43.10233426 82.97793418 43.10233426 82.97793418 42.375 81.0625 C42 79 42 79 44 76 C46.4375 75.125 46.4375 75.125 49 75 C51.51982932 76.61989028 51.94342109 77.77882791 52.6875 80.6875 C52.8421875 81.8321875 52.8421875 81.8321875 53 83 C54.30514736 80.78223378 54.30514736 80.78223378 55 78 C52.82331275 73.2456568 49.15676305 70.0470014 45.4375 66.5 C38.90841605 60.10798982 33.26845683 53.45352109 28 46 C27.59330078 45.4323291 27.18660156 44.8646582 26.76757812 44.27978516 C19.49299581 34.05167703 13.64395271 23.19535185 8 12 C6.7625 12.309375 5.525 12.61875 4.25 12.9375 C2.125 13.46875 2.125 13.46875 0 14 C-0.74765625 14.18691406 -1.4953125 14.37382812 -2.265625 14.56640625 C-2.83796875 14.70949219 -3.4103125 14.85257813 -4 15 C-3.67 16.65 -3.34 18.3 -3 20 C-3.66 20 -4.32 20 -5 20 C-4.67039784 25.01535052 -4.67039784 25.01535052 -2 29 C-1.43479997 31.65537372 -1.26211802 34.29144713 -1 37 C-2.65 36.67 -4.3 36.34 -6 36 C-5.67 34.68 -5.34 33.36 -5 32 C-5.66 32 -6.32 32 -7 32 C-9.05689373 25.58249157 -9.78828903 20.66721888 -6.73461914 14.44189453 C-5.78395495 12.68765626 -4.79108736 10.95649201 -3.796875 9.2265625 C-2.1029681 6.1848949 -0.98557333 3.32882421 0 0 Z " fill="#090201" transform="translate(32,15)"/>
<path d="M0 0 C2.39614575 0.14165893 4.79182897 0.28818841 7.1875 0.4375 C7.86103516 0.47681641 8.53457031 0.51613281 9.22851562 0.55664062 C12.89699102 0.78927565 16.41694206 1.17207011 20 2 C19.67 2.99 19.34 3.98 19 5 C18.01 5.474375 17.02 5.94875 16 6.4375 C12.91228786 7.62068487 12.91228786 7.62068487 12.32299805 9.80810547 C11.71976294 13.90171454 11.81538428 17.99471569 11.8125 22.125 C11.80025391 23.02476563 11.78800781 23.92453125 11.77539062 24.8515625 C11.6582885 35.92145576 11.6582885 35.92145576 16.125 45.625 C16.74375 46.07875 17.3625 46.5325 18 47 C15.88074396 49.11925604 11.3803907 48.41831017 8.4375 48.5625 C7.63119141 48.60568359 6.82488281 48.64886719 5.99414062 48.69335938 C3.99631195 48.79975262 1.9981793 48.90040888 0 49 C-0.6875 46.6875 -0.6875 46.6875 -1 44 C-0.51748779 43.60901123 -0.03497559 43.21802246 0.4621582 42.81518555 C2.87224241 39.97045209 2.36850854 36.82225989 2.29296875 33.26953125 C2.28872391 32.51911057 2.28447906 31.76868988 2.28010559 30.99552917 C2.2633245 28.60081974 2.2256749 26.20695466 2.1875 23.8125 C2.17245235 22.1881632 2.15876409 20.5638132 2.14648438 18.93945312 C2.11342305 14.95931052 2.06164594 10.97979837 2 7 C1.01 6.67 0.02 6.34 -1 6 C-1.33 5.01 -1.66 4.02 -2 3 C-1.34 2.01 -0.68 1.02 0 0 Z " fill="#070201" transform="translate(242,86)"/>
<path d="M0 0 C0.7940625 -0.01675781 1.588125 -0.03351563 2.40625 -0.05078125 C3.0971875 0.06910156 3.788125 0.18898438 4.5 0.3125 C5.16 1.3025 5.82 2.2925 6.5 3.3125 C1.52998172 11.7399223 -6.03910601 18.12154541 -13.5 24.3125 C-12.98050781 24.82039063 -12.46101563 25.32828125 -11.92578125 25.8515625 C-8.69663211 29.03892967 -5.53497727 32.16183179 -2.75 35.75 C-0.77172282 38.347905 -0.77172282 38.347905 1.5 39.25 C3.96049068 39.32689033 6.11796631 38.90800842 8.5 38.3125 C10.5 41.3125 10.5 41.3125 10.3125 44.25 C9.47032165 47.42436457 8.94438823 49.12097952 6.5 51.3125 C3.47852126 51.99919971 1.57985515 51.95212643 -1.12890625 50.34765625 C-5.946948 46.4909871 -9.67332836 41.6178909 -13.484375 36.80078125 C-17.14084381 32.19307079 -17.14084381 32.19307079 -22.5 30.3125 C-22.85546875 28.15625 -22.85546875 28.15625 -22.5 25.3125 C-20.64525995 23.2536498 -18.91633012 21.573502 -16.8125 19.8125 C-15.74514559 18.88650845 -14.67873061 17.95943288 -13.61328125 17.03125 C-13.0937085 16.57919189 -12.57413574 16.12713379 -12.03881836 15.66137695 C-9.7208642 13.62953549 -7.5308597 11.63619902 -5.5 9.3125 C-5.73477199 5.66708155 -5.73477199 5.66708155 -6.5 2.3125 C-4.07477793 -0.11272207 -3.3279321 0.01620746 0 0 Z " fill="#070201" transform="translate(44.5,84.6875)"/>
<path d="M0 0 C2.48339922 1.00291122 3.54230427 2.18488089 5.21875 4.2578125 C5.72792969 4.87527344 6.23710937 5.49273437 6.76171875 6.12890625 C10.40709936 10.98567488 9.59845154 17.02225236 9.03125 22.8203125 C7.77168658 27.05244559 6.03283868 30.89169289 4.03125 34.8203125 C3.49564453 35.94373047 3.49564453 35.94373047 2.94921875 37.08984375 C1.96875 39.0078125 1.96875 39.0078125 0.03125 41.8203125 C-2.08984375 42.49609375 -2.08984375 42.49609375 -3.96875 42.8203125 C-4.39696045 42.16434082 -4.8251709 41.50836914 -5.26635742 40.83251953 C-7.21655121 37.86127222 -9.18606562 34.90333817 -11.15625 31.9453125 C-11.82978516 30.91277344 -12.50332031 29.88023438 -13.19726562 28.81640625 C-13.85791016 27.83027344 -14.51855469 26.84414062 -15.19921875 25.828125 C-16.10256958 24.46131592 -16.10256958 24.46131592 -17.02416992 23.06689453 C-19.18787471 20.56715674 -20.83899949 19.76986699 -23.96875 18.8203125 C-23.96875 15.8203125 -23.96875 15.8203125 -22.65625 14.43359375 C-21.09375 13.22916667 -19.53125 12.02473958 -17.96875 10.8203125 C-14.29399243 12.2804348 -12.82914785 14.0808839 -10.734375 17.390625 C-10.16074219 18.28652344 -9.58710938 19.18242188 -8.99609375 20.10546875 C-8.40957031 21.04261719 -7.82304687 21.97976562 -7.21875 22.9453125 C-6.61675781 23.89019531 -6.01476562 24.83507812 -5.39453125 25.80859375 C-3.9105811 28.14051541 -2.43579473 30.47773243 -0.96875 32.8203125 C1.91101211 28.50066933 2.18981275 25.48155651 2.21875 20.3828125 C2.23292969 19.24972656 2.24710937 18.11664063 2.26171875 16.94921875 C2.03809709 13.91327051 1.84295154 12.24538007 0.03125 9.8203125 C-1.90856618 8.91421258 -1.90856618 8.91421258 -4.09375 8.5703125 C-5.3725 8.3228125 -6.65125 8.0753125 -7.96875 7.8203125 C-7.37095557 4.69995695 -7.0152112 3.8667737 -4.65625 1.5078125 C-1.96875 -0.1796875 -1.96875 -0.1796875 0 0 Z " fill="#080101" transform="translate(321.96875,93.1796875)"/>
<path d="M0 0 C5.61971831 2.85915493 5.61971831 2.85915493 7 7 C5.68 8.32 4.36 9.64 3 11 C0.37812506 9.95125002 -0.79371361 9.35068687 -2.25 6.875 C-2.4975 6.25625 -2.745 5.6375 -3 5 C-4.98 5 -6.96 5 -9 5 C-8.91190224 7.40829705 -8.91190224 7.40829705 -8 10 C-5.62606229 11.76631414 -5.62606229 11.76631414 -2.6875 13.0625 C1.23078797 14.95102064 4.16597562 16.65780573 7 20 C7.89625079 23.07285986 8.3709197 25.01527411 7.23046875 28.04296875 C5.04798491 31.51415734 1.83741281 32.82581728 -2 34 C-6.73893479 34.34363271 -10.23852685 33.36713884 -14.5 31.3125 C-17.47745228 28.55835664 -17.81889572 26.98429423 -18 23 C-15 21 -15 21 -13 20.9375 C-9.74025726 22.66923833 -9.21277618 25.66486552 -8 29 C-6.00045254 29.04254356 -3.99958364 29.04080783 -2 29 C-0.70366379 27.93354885 -0.70366379 27.93354885 -0.9375 25.4375 C-0.958125 24.633125 -0.97875 23.82875 -1 23 C-1.98742187 22.45730469 -2.97484375 21.91460937 -3.9921875 21.35546875 C-5.28666715 20.63318662 -6.58092658 19.91050971 -7.875 19.1875 C-8.52597656 18.83107422 -9.17695313 18.47464844 -9.84765625 18.10742188 C-13.06597903 16.29918897 -14.9196783 15.12048255 -17 12 C-17.66812946 5.87547998 -17.66812946 5.87547998 -15.1875 2.625 C-10.63145877 -0.75948777 -5.45559835 -0.62688552 0 0 Z " fill="#080200" transform="translate(189,102)"/>
<path d="M0 0 C2.4375 1.8125 2.4375 1.8125 3.5 4.3125 C3.4375 6.8125 3.4375 6.8125 2.25 8.6875 C0.4375 9.8125 0.4375 9.8125 -1.625 9.8125 C-3.5625 8.8125 -3.5625 8.8125 -4.8125 6.25 C-5.06 5.445625 -5.3075 4.64125 -5.5625 3.8125 C-7.8725 3.4825 -10.1825 3.1525 -12.5625 2.8125 C-12.5625 4.7925 -12.5625 6.7725 -12.5625 8.8125 C-11.923125 9.039375 -11.28375 9.26625 -10.625 9.5 C-7.98292216 10.63231907 -5.47499312 11.84217331 -2.9375 13.1875 C-2.18210937 13.58710937 -1.42671875 13.98671875 -0.6484375 14.3984375 C1.67921177 15.97635705 2.96729836 17.42285337 4.4375 19.8125 C5 23.25 5 23.25 4.4375 26.8125 C1.1248196 30.8225868 -1.43469787 32.08438308 -6.5625 32.8125 C-11.94124507 33.10368018 -15.13628751 31.5917225 -19.4375 28.4375 C-21.04678969 26.11297044 -20.98651741 24.56861316 -20.5625 21.8125 C-17.5625 19.8125 -17.5625 19.8125 -15.5625 19.75 C-12.30275726 21.48173833 -11.77527618 24.47736552 -10.5625 27.8125 C-8.5825 27.8125 -6.6025 27.8125 -4.5625 27.8125 C-4.2325 26.1625 -3.9025 24.5125 -3.5625 22.8125 C-4.0471875 22.52117187 -4.531875 22.22984375 -5.03125 21.9296875 C-7.22804296 20.58626411 -9.39823714 19.20773545 -11.5625 17.8125 C-12.68978516 17.09126953 -12.68978516 17.09126953 -13.83984375 16.35546875 C-19.23458861 12.65816621 -19.23458861 12.65816621 -20.75 8.75 C-20.52459769 5.21869712 -19.77599726 3.5602897 -17.5625 0.8125 C-12.14863942 -2.54339198 -5.84412027 -1.94804009 0 0 Z " fill="#080201" transform="translate(486.5625,103.1875)"/>
<path d="M0 0 C3.53786617 1.43020122 4.63735151 2.25743404 6.3125 5.6875 C6.6528125 6.8321875 6.6528125 6.8321875 7 8 C1.33680699 13.20444273 -4.62497025 17.70208035 -11 22 C-8.06352549 25.46185014 -5.52906436 25.76538578 -1.15234375 26.1484375 C1.23100824 26.19215065 1.23100824 26.19215065 3.375 24.0625 C3.91125 23.381875 4.4475 22.70125 5 22 C5.99 22 6.98 22 8 22 C7.81090982 26.0654389 7.24170414 27.72808284 4.5 30.8125 C0.66996631 33.65740483 -3.2960451 34.28765192 -8 34 C-13.23788813 32.18688488 -17.28602331 29.0838345 -20.01171875 24.1796875 C-22.0961459 19.36947099 -22.72705362 15.02603629 -21 10 C-19.52595733 7.58606253 -18.05678552 6.00662002 -16 4 C-15.34 4 -14.68 4 -14 4 C-14.33 8.62 -14.66 13.24 -15 18 C-13.22625 16.906875 -11.4525 15.81375 -9.625 14.6875 C-8.62726563 14.07261719 -7.62953125 13.45773438 -6.6015625 12.82421875 C-3.80173188 11.09562225 -3.80173188 11.09562225 -2 8 C-4.06756277 5.2027092 -5.14440371 4.97307727 -8.6875 4.3125 C-9.780625 4.209375 -10.87375 4.10625 -12 4 C-11.67 3.01 -11.34 2.02 -11 1 C-7.547912 -0.726044 -3.78158433 -0.35983934 0 0 Z " fill="#080200" transform="translate(368,102)"/>
<path d="M0 0 C3.5772439 0.5484701 5.6643803 1.92011818 8.29296875 4.3515625 C8.94921875 6.99609375 8.94921875 6.99609375 9.29296875 9.3515625 C6.67381488 11.35931348 4.04672429 13.35640445 1.41796875 15.3515625 C0.67160156 15.92390625 -0.07476562 16.49625 -0.84375 17.0859375 C-1.55917969 17.62734375 -2.27460938 18.16875 -3.01171875 18.7265625 C-3.67155762 19.22929688 -4.33139648 19.73203125 -5.01123047 20.25 C-6.70703125 21.3515625 -6.70703125 21.3515625 -8.70703125 21.3515625 C-7.81145185 23.47299983 -7.81145185 23.47299983 -5.70703125 25.3515625 C-2.682489 26.27381875 0.13969181 26.62053531 3.29296875 26.3515625 C5.69092256 24.53869055 5.69092256 24.53869055 7.29296875 22.3515625 C8.28296875 22.3515625 9.27296875 22.3515625 10.29296875 22.3515625 C10.10387857 26.4170014 9.53467289 28.07964534 6.79296875 31.1640625 C2.95556612 34.0144409 -0.99674004 34.62314686 -5.70703125 34.3515625 C-11.14998302 32.64396979 -14.50863408 28.93558451 -17.70703125 24.3515625 C-19.15566583 20.00565877 -19.22891172 15.89333308 -18.70703125 11.3515625 C-15.84787632 5.73184419 -15.84787632 5.73184419 -11.70703125 4.3515625 C-11.70703125 8.6415625 -11.70703125 12.9315625 -11.70703125 17.3515625 C-8.56920161 15.78264768 -6.19863873 14.32846157 -3.45703125 12.2265625 C-2.39742187 11.41832031 -2.39742187 11.41832031 -1.31640625 10.59375 C-0.7853125 10.18382813 -0.25421875 9.77390625 0.29296875 9.3515625 C-0.03703125 8.3615625 -0.36703125 7.3715625 -0.70703125 6.3515625 C-2.80422997 5.32874732 -2.80422997 5.32874732 -5.26953125 4.6640625 C-6.09582031 4.41269531 -6.92210937 4.16132812 -7.7734375 3.90234375 C-8.41152344 3.72058594 -9.04960937 3.53882812 -9.70703125 3.3515625 C-6.72779408 -0.21406421 -4.45213003 -0.15978281 0 0 Z " fill="#080201" transform="translate(146.70703125,101.6484375)"/>
<path d="M0 0 C0.99 0.33 1.98 0.66 3 1 C4.19754152 4.59262457 4.19198275 7.91767418 4.24609375 11.66015625 C4.27901343 13.19076133 4.31222538 14.72136015 4.34570312 16.25195312 C4.39323524 18.66377722 4.43771189 21.07557258 4.47680664 23.48754883 C4.51641159 25.81617727 4.56796087 28.14430281 4.62109375 30.47265625 C4.6295079 31.19663101 4.63792206 31.92060577 4.64659119 32.66651917 C4.62907436 36.78599885 4.62907436 36.78599885 7 40 C6.7831713 44.87864583 5.25135812 47.43399432 2 51 C-0.375 50.6875 -0.375 50.6875 -3 50 C-5.46510106 46.30234841 -5.27921828 43.4678139 -5.2734375 39.19140625 C-5.29372466 37.62434179 -5.31457541 36.05728455 -5.3359375 34.49023438 C-5.3585467 32.02361963 -5.37501235 29.55728982 -5.38085938 27.09057617 C-5.39038321 24.70699787 -5.4241538 22.32469799 -5.4609375 19.94140625 C-5.45589203 19.20588028 -5.45084656 18.47035431 -5.44564819 17.71253967 C-5.5146453 14.11921535 -5.72895479 12.33270556 -8.03369141 9.50366211 C-8.68257324 9.00745361 -9.33145508 8.51124512 -10 8 C-8.71064081 6.85157077 -7.41843421 5.70633773 -6.125 4.5625 C-5.04605469 3.60537109 -5.04605469 3.60537109 -3.9453125 2.62890625 C-2 1 -2 1 0 0 Z " fill="#050101" transform="translate(17,85)"/>
<path d="M0 0 C1.6875 0.8125 1.6875 0.8125 2.6875 1.8125 C2.94494164 3.8076727 3.19949834 5.80362677 3.40625 7.8046875 C3.6537595 10.01388785 3.6537595 10.01388785 4.6875 12.8125 C6.70258358 13.54573796 6.70258358 13.54573796 8.6875 13.8125 C8.3575 15.1325 8.0275 16.4525 7.6875 17.8125 C6.0375 17.8125 4.3875 17.8125 2.6875 17.8125 C2.80108476 20.77168198 2.92783086 23.72926783 3.0625 26.6875 C3.0934375 27.52925781 3.124375 28.37101562 3.15625 29.23828125 C3.19492187 30.04394531 3.23359375 30.84960938 3.2734375 31.6796875 C3.3048584 32.42331543 3.3362793 33.16694336 3.36865234 33.93310547 C3.54169551 36.05260974 3.54169551 36.05260974 5.6875 37.8125 C5.47857816 41.08560883 5.25055786 43.13683057 3.125 45.6875 C2.650625 46.05875 2.17625 46.43 1.6875 46.8125 C-0.75 46 -0.75 46 -3.3125 44.8125 C-4.49019048 41.27942856 -4.48507778 38.04915579 -4.5234375 34.37109375 C-4.55148886 32.88605636 -4.58015319 31.40103044 -4.609375 29.91601562 C-4.65075043 27.57657994 -4.68764165 25.23736261 -4.71386719 22.89770508 C-4.74138224 20.63838717 -4.78722867 18.38004053 -4.8359375 16.12109375 C-4.83919037 15.41899277 -4.84244324 14.71689178 -4.84579468 13.99351501 C-4.86739158 11.80822169 -4.86739158 11.80822169 -5.3125 8.8125 C-6.3025 8.1525 -7.2925 7.4925 -8.3125 6.8125 C-8.3125 5.8225 -8.3125 4.8325 -8.3125 3.8125 C-3.32342896 -0.26946721 -3.32342896 -0.26946721 0 0 Z " fill="#080201" transform="translate(443.3125,89.1875)"/>
<path d="M0 0 C1.59138085 4.17737474 2.21278058 7.53160785 2 12 C3.65 12.33 5.3 12.66 7 13 C7 14.65 7 16.3 7 18 C5.35 18.33 3.7 18.66 2 19 C2 24.94 2 30.88 2 37 C2.66 37 3.32 37 4 37 C5 40 5 40 3.8125 43.125 C2 46 2 46 0 47.0625 C-2 47 -2 47 -3.6875 45.75 C-6.37785923 42.16285436 -6.10493434 38.78526506 -6.0625 34.46875 C-6.05476563 33.18355469 -6.04703125 31.89835937 -6.0390625 30.57421875 C-6.02037055 28.53335304 -5.999925 26.49250909 -5.97949219 24.45166016 C-5.96141781 22.47822323 -5.94937653 20.50473396 -5.9375 18.53125 C-5.92589844 17.35111328 -5.91429688 16.17097656 -5.90234375 14.95507812 C-5.86157644 11.94073522 -5.86157644 11.94073522 -7 9 C-7.99 8.34 -8.98 7.68 -10 7 C-7.88268985 1.88316713 -5.59548444 0 0 0 Z " fill="#060201" transform="translate(107,89)"/>
<path d="M0 0 C2.75569447 2.18159145 4.43588747 3.87177494 6 7 C6.07194869 9.88370333 6.09291708 12.74239664 6.0625 15.625 C6.05798828 16.42679688 6.05347656 17.22859375 6.04882812 18.0546875 C6.03703168 20.03649006 6.01909605 22.01825433 6 24 C6.66 24 7.32 24 8 24 C8.33102914 27.6413205 8.42019439 29.41472925 6.25 32.4375 C4 34 4 34 1.875 34 C-0.59320689 32.68362299 -0.96907462 31.58257609 -2 29 C-2.31884766 26.43457031 -2.31884766 26.43457031 -2.4140625 23.578125 C-2.47207031 22.04091797 -2.47207031 22.04091797 -2.53125 20.47265625 C-2.5621875 19.40917969 -2.593125 18.34570312 -2.625 17.25 C-2.66367187 16.17105469 -2.70234375 15.09210938 -2.7421875 13.98046875 C-2.83634631 11.32048225 -2.92197387 8.6605006 -3 6 C-7.55808487 4.94810634 -7.55808487 4.94810634 -11.875 6.4375 C-12.57625 6.953125 -13.2775 7.46875 -14 8 C-13.69209738 5.15190074 -13.34521809 3.41713852 -11.5 1.1875 C-7.68840053 -0.62300975 -4.1338504 -0.8105589 0 0 Z " fill="#070101" transform="translate(414,102)"/>
<path d="M0 0 C0.59425781 0.19980469 1.18851562 0.39960937 1.80078125 0.60546875 C1.82543517 5.1444458 1.84361914 9.68338418 1.85571289 14.22241211 C1.86075265 15.76766641 1.86758445 17.31291591 1.8762207 18.8581543 C1.88830201 21.07471904 1.89401298 23.29122093 1.8984375 25.5078125 C1.90359879 26.20261215 1.90876007 26.8974118 1.91407776 27.61326599 C1.91427402 29.27776205 1.86267254 30.94212374 1.80078125 32.60546875 C0.80078125 33.60546875 0.80078125 33.60546875 -1.69921875 33.73046875 C-4.19921875 33.60546875 -4.19921875 33.60546875 -5.19921875 32.60546875 C-5.3568628 30.82677149 -5.45022552 29.04228399 -5.515625 27.2578125 C-5.55751953 26.17822266 -5.59941406 25.09863281 -5.64257812 23.98632812 C-5.68189453 22.85001953 -5.72121094 21.71371094 -5.76171875 20.54296875 C-5.80490234 19.40279297 -5.84808594 18.26261719 -5.89257812 17.08789062 C-5.99904714 14.2605468 -6.10106082 11.43311137 -6.19921875 8.60546875 C-7.18921875 8.27546875 -8.17921875 7.94546875 -9.19921875 7.60546875 C-9.07421875 5.85546875 -9.07421875 5.85546875 -8.19921875 3.60546875 C-3.1310441 -0.56169708 -3.1310441 -0.56169708 0 0 Z " fill="#060100" transform="translate(397.19921875,102.39453125)"/>
<path d="M0 0 C2.62671187 0.05837137 4.11106326 0.11106326 6 2 C5.79647213 5.59565906 5.40462323 8.28271337 3.625 11.4375 C-0.62612397 13.96793094 -5.17721001 13.58831197 -10 13 C-12.84765625 11.9765625 -12.84765625 11.9765625 -15 11 C-15 10.34 -15 9.68 -15 9 C-14.12988281 8.77957031 -14.12988281 8.77957031 -13.2421875 8.5546875 C-8.85371882 7.29463214 -5.82585618 6.2123512 -2.75 2.75 C-1.38875 1.38875 -1.38875 1.38875 0 0 Z " fill="#080201" transform="translate(281,122)"/>
<path d="M0 0 C2.32894163 2.13427389 3.73905902 4.12820578 5.12890625 6.95703125 C5.51892822 7.73304687 5.9089502 8.5090625 6.31079102 9.30859375 C6.93038696 10.54802734 6.93038696 10.54802734 7.5625 11.8125 C16.03895621 28.31837822 27.57002363 42.2829961 40 56 C37 56 37 56 35.30859375 54.70703125 C22.65810267 41.8980789 12.34503837 26.58594976 3.875 10.75 C3.4843335 10.02264648 3.09366699 9.29529297 2.69116211 8.54589844 C0 3.38013966 0 3.38013966 0 0 Z " fill="#1F0B00" transform="translate(41,26)"/>
<path d="M0 0 C1.6875 2.3125 1.6875 2.3125 2.125 4.9375 C1.980625 5.72125 1.83625 6.505 1.6875 7.3125 C-1.3125 9.3125 -1.3125 9.3125 -3.1875 9.1875 C-5.98478265 8.03567773 -7.96153726 6.2047383 -10.3125 4.3125 C-12.9919645 3.07233331 -12.9919645 3.07233331 -15.3125 2.3125 C-14.9825 1.3225 -14.6525 0.3325 -14.3125 -0.6875 C-3.30771817 -2.41374029 -3.30771817 -2.41374029 0 0 Z " fill="#090201" transform="translate(282.3125,87.6875)"/>
<path d="M0 0 C0.78246094 -0.02578125 1.56492187 -0.0515625 2.37109375 -0.078125 C4.5625 0.25 4.5625 0.25 6.3671875 1.59765625 C7.5625 3.25 7.5625 3.25 7.25 5.9375 C7.023125 6.700625 6.79625 7.46375 6.5625 8.25 C4.3125 9 4.3125 9 1.5625 9.25 C-0.5 7.375 -0.5 7.375 -2.4375 5.25 C-4.5756966 4.4627322 -4.5756966 4.4627322 -6.4375 4.25 C-6.4375 3.26 -6.4375 2.27 -6.4375 1.25 C-4.11063547 0.08656773 -2.59028587 0.05104012 0 0 Z " fill="#090201" transform="translate(261.4375,103.75)"/>
<path d="M0 0 C1.32 0.66 2.64 1.32 4 2 C3.01 3.98 2.02 5.96 1 8 C0 6 0 6 0 3 C-0.99 2.67 -1.98 2.34 -3 2 C-2.01 1.34 -1.02 0.68 0 0 Z " fill="#120100" transform="translate(47,85)"/>
<path d="M0 0 C0.99 0.33 1.98 0.66 3 1 C2.34 1 1.68 1 1 1 C1 2.32 1 3.64 1 5 C1.66 5.33 2.32 5.66 3 6 C1.68 6.99 0.36 7.98 -1 9 C-2.0326802 6.21176345 -2.04509293 5.1322726 -1.0625 2.25 C-0.711875 1.5075 -0.36125 0.765 0 0 Z " fill="#120400" transform="translate(60,119)"/>
<path d="" fill="#000000" transform="translate(0,0)"/>
<path d="" fill="#000000" transform="translate(0,0)"/>
<path d="" fill="#000000" transform="translate(0,0)"/>
<path d="" fill="#000000" transform="translate(0,0)"/>
<path d="" fill="#000000" transform="translate(0,0)"/>
<path d="" fill="#000000" transform="translate(0,0)"/>
<path d="" fill="#000000" transform="translate(0,0)"/>
<path d="" fill="#000000" transform="translate(0,0)"/>
<path d="" fill="#240000" transform="translate(0,0)"/>
<path d="" fill="#000000" transform="translate(0,0)"/>
<path d="" fill="#000000" transform="translate(0,0)"/>
<path d="" fill="#000000" transform="translate(0,0)"/>
<path d="" fill="#240000" transform="translate(0,0)"/>
<path d="" fill="#000000" transform="translate(0,0)"/>
<path d="" fill="#000000" transform="translate(0,0)"/>
</svg>
